<svg xmlns="http://www.w3.org/2000/svg" width="1400" height="900" viewBox="0 0 1400 900" role="img" aria-labelledby="title desc">
  <title id="title">Sacred geometry wellness center concept</title>
  <desc id="desc">A warm concept image showing a sunflower-inspired sacred geometry garden, wellness pavilion, mountain landscape, and walking paths.</desc>
  <defs>
    <linearGradient id="bg" x1="0" x2="1" y1="0" y2="1">
      <stop offset="0" stop-color="#fffaf0"/>
      <stop offset="0.45" stop-color="#f0d982"/>
      <stop offset="1" stop-color="#496b43"/>
    </linearGradient>
    <radialGradient id="glow" cx="50%" cy="50%" r="50%">
      <stop offset="0" stop-color="#fff8c7"/>
      <stop offset="0.55" stop-color="#f0d982"/>
      <stop offset="1" stop-color="#d1a436" stop-opacity="0"/>
    </radialGradient>
  </defs>
  <rect width="1400" height="900" fill="url(#bg)"/>
  <circle cx="1110" cy="170" r="160" fill="url(#glow)" opacity="0.82"/>
  <path d="M0 430 C180 300 330 370 500 250 C680 120 800 330 960 215 C1110 110 1230 210 1400 90 L1400 900 L0 900 Z" fill="#102016" opacity="0.35"/>
  <path d="M0 520 C220 415 390 485 590 380 C760 292 940 470 1140 350 C1230 300 1320 320 1400 270 L1400 900 L0 900 Z" fill="#1c3424" opacity="0.55"/>
  <path d="M0 720 C260 650 420 750 670 675 C900 606 1090 730 1400 635 L1400 900 L0 900 Z" fill="#496b43"/>
  <path d="M690 325 L920 485 L835 750 L545 750 L460 485 Z" fill="#fffaf0" opacity="0.82" stroke="#102016" stroke-width="5"/>
  <path d="M520 500 L860 500 L760 690 L620 690 Z" fill="#d1a436" opacity="0.55"/>
  <path d="M690 325 L690 750 M460 485 L920 485 M545 750 L835 750" stroke="#102016" stroke-width="3" opacity="0.38"/>
  <g transform="translate(690 545)" fill="none" stroke="#102016" opacity="0.42">
    <circle r="230" stroke-width="4"/>
    <circle r="150" stroke-width="3"/>
    <circle r="75" stroke-width="3"/>
    <path d="M0 -230 L199 115 L-199 115 Z" stroke-width="3"/>
    <path d="M0 230 L199 -115 L-199 -115 Z" stroke-width="3"/>
  </g>
  <g transform="translate(690 545)">
    <g fill="#f0d982" opacity="0.95">
      <ellipse rx="34" ry="92" transform="rotate(0) translate(0 -105)"/>
      <ellipse rx="34" ry="92" transform="rotate(30) translate(0 -105)"/>
      <ellipse rx="34" ry="92" transform="rotate(60) translate(0 -105)"/>
      <ellipse rx="34" ry="92" transform="rotate(90) translate(0 -105)"/>
      <ellipse rx="34" ry="92" transform="rotate(120) translate(0 -105)"/>
      <ellipse rx="34" ry="92" transform="rotate(150) translate(0 -105)"/>
      <ellipse rx="34" ry="92" transform="rotate(180) translate(0 -105)"/>
      <ellipse rx="34" ry="92" transform="rotate(210) translate(0 -105)"/>
      <ellipse rx="34" ry="92" transform="rotate(240) translate(0 -105)"/>
      <ellipse rx="34" ry="92" transform="rotate(270) translate(0 -105)"/>
      <ellipse rx="34" ry="92" transform="rotate(300) translate(0 -105)"/>
      <ellipse rx="34" ry="92" transform="rotate(330) translate(0 -105)"/>
    </g>
    <circle r="68" fill="#5a3a1e"/>
    <circle r="38" fill="#7a4f35" opacity="0.88"/>
  </g>
  <path d="M0 805 C240 750 440 820 650 780 C860 740 1070 830 1400 770" fill="none" stroke="#557a8a" stroke-width="35" opacity="0.72"/>
  <g fill="#d1a436">
    <circle cx="115" cy="690" r="28"/><circle cx="175" cy="735" r="21"/><circle cx="1225" cy="705" r="27"/><circle cx="1280" cy="760" r="20"/>
  </g>
  <text x="70" y="92" fill="#102016" font-family="Arial, sans-serif" font-size="44" font-weight="800">Wellness by Design</text>
  <text x="72" y="136" fill="#102016" font-family="Arial, sans-serif" font-size="24" opacity="0.82">Sunflower geometry • trails • gardens • gathering</text>
</svg>
