<svg xmlns="http://www.w3.org/2000/svg" viewBox="0 0 280 280" role="img" aria-label="Phytoremediation solution slide"><rect width="140" height="280" fill="#fffaf0"/><rect x="140" width="140" height="280" fill="#4187ed"/><text x="158" y="52" font-family="Arial, sans-serif" font-size="25" fill="white">The solution</text><rect x="164" y="74" width="78" height="16" fill="#fff"/><text x="168" y="86" font-family="Arial" font-size="8" fill="#333">Understanding Phytoremediation</text><text x="156" y="120" font-family="Arial" font-size="10" fill="white">Plants filter, stabilize,</text><text x="156" y="138" font-family="Arial" font-size="10" fill="white">extract, degrade, and</text><text x="156" y="156" font-family="Arial" font-size="10" fill="white">manage pollutants from</text><text x="156" y="174" font-family="Arial" font-size="10" fill="white">soil, water, and air.</text><line x1="70" y1="216" x2="70" y2="82" stroke="#3c7d3c" stroke-width="6"/><ellipse cx="55" cy="135" rx="22" ry="10" fill="#5da156" transform="rotate(-30 55 135)"/><ellipse cx="88" cy="155" rx="24" ry="10" fill="#5da156" transform="rotate(25 88 155)"/><circle cx="70" cy="70" r="34" fill="#f0d982"/><circle cx="70" cy="70" r="12" fill="#55361e"/><rect x="28" y="216" width="84" height="26" fill="#594536"/><path d="M70 216 C45 195 38 180 34 162 M70 216 C96 188 105 170 108 146" stroke="#476b43" stroke-width="3" fill="none"/></svg>